<?xml version="1.0" encoding="UTF-8"?>
<svg id="Layer_2" data-name="Layer 2" xmlns="http://www.w3.org/2000/svg" viewBox="0 0 169.98 196.3">
  <defs>
    <style>
      .cls-1 {
        fill: #8b79af;
      }

      .cls-1, .cls-2, .cls-3 {
        stroke-width: 0px;
      }

      .cls-2 {
        fill: #2d2d2d;
      }

      .cls-3 {
        fill: #424242;
      }
    </style>
  </defs>
  <g id="Layer_1-2" data-name="Layer 1">
    <g>
      <polygon class="cls-3" points="169.98 49.08 152.99 58.89 135.99 68.69 135.99 68.69 135.99 68.7 118.99 78.51 101.99 88.33 85 98.15 67.99 88.33 51 78.52 51 78.51 50.99 78.51 34 68.7 17 58.89 16.99 58.89 0 49.08 17 39.26 34 49.07 51 58.89 67.99 68.69 85 78.51 101.99 68.69 85 58.89 67.99 49.07 51 39.26 51 39.25 50.99 39.25 34 29.44 51 19.63 67.99 29.44 85 39.25 101.99 49.07 118.99 58.88 135.99 49.07 118.99 39.25 101.99 29.44 101.99 29.44 85 19.63 68 9.82 85 0 85 0 101.98 9.82 101.99 9.82 118.99 19.63 118.99 19.63 135.99 29.44 152.98 39.26 152.99 39.26 169.98 49.08"/>
      <polygon class="cls-2" points="135.99 49.07 118.99 58.88 101.99 49.07 85 39.25 67.99 29.44 67.99 9.82 68 9.82 85 19.63 101.99 29.44 101.99 29.44 118.99 39.25 135.99 49.07"/>
      <polygon class="cls-2" points="101.99 68.69 85 78.51 67.99 68.69 51 58.89 34 49.07 34 29.44 50.99 39.25 51 39.25 51 39.26 67.99 49.07 85 58.89 101.99 68.69"/>
      <polygon class="cls-1" points="169.98 49.09 169.98 68.73 152.99 78.53 152.98 78.53 135.99 88.35 118.99 98.16 118.99 98.17 118.99 98.17 101.99 107.98 101.99 166.86 118.99 157.05 118.99 157.05 135.99 147.23 152.98 137.42 152.99 137.42 152.99 137.41 169.98 127.6 169.98 127.6 169.98 147.23 152.99 157.05 135.99 166.86 118.99 176.67 118.99 176.68 118.99 176.68 101.99 186.49 85 196.3 85 98.16 101.98 88.35 101.99 88.35 101.99 88.34 118.99 78.53 118.99 78.53 135.99 68.73 135.99 68.72 152.99 58.91 152.99 58.9 169.98 49.09"/>
      <polygon class="cls-2" points="169.98 127.6 152.99 137.41 152.99 137.42 152.98 137.42 135.99 147.23 118.99 157.05 118.99 157.05 101.99 166.86 101.99 147.24 118.99 137.42 135.99 127.61 135.99 127.6 135.99 127.6 152.98 117.79 152.99 117.79 169.98 127.6"/>
      <polygon class="cls-3" points="85 98.16 85 196.3 67.99 186.49 67.99 107.98 51.01 98.17 51 98.17 51 176.67 34 166.86 34 166.86 34 88.34 17 78.53 17 157.05 0 147.23 0 127.61 0 127.6 0 127.6 0 49.09 17 58.91 34 68.72 34 68.73 51 78.53 67.99 88.34 67.99 88.36 68 88.35 85 98.16"/>
      <polygon class="cls-2" points="34 88.34 34 147.24 17 157.05 17 78.53 34 88.34"/>
      <polygon class="cls-2" points="67.99 107.98 67.99 166.86 51 176.67 51 98.17 51.01 98.17 67.99 107.98"/>
    </g>
  </g>
</svg>