<svg width="72" height="71" viewBox="0 0 72 71" fill="none" xmlns="http://www.w3.org/2000/svg">
<path d="M69.1968 36.278C69.1968 54.0643 54.7774 68.4906 36.9842 68.4906C32.6374 68.4906 28.5005 67.6297 24.7207 66.0687C31.9444 61.4559 40.015 54.8062 47.7707 47.0576C55.5264 39.3019 62.1761 31.2243 66.7749 24.0076C68.3358 27.7874 69.1968 31.9312 69.1968 36.278Z" fill="#626262"/>
<path d="M69.9381 3.32365C66.5783 -0.0362024 59.1446 3.11366 53.4048 6.41052C54.1188 6.8025 54.8188 7.21549 55.5048 7.66347C59.9146 5.23458 63.5194 3.97463 65.9203 3.97463C67.0402 3.97463 67.8942 4.24762 68.4542 4.8076C70.2041 6.55752 69.1542 11.2893 65.5983 17.757C61.6435 24.9597 54.5738 34.3183 44.8022 44.0899C35.0236 53.8685 25.672 60.9382 18.4623 64.893C11.9946 68.4488 7.26283 69.4918 5.51291 67.7419C3.76299 65.9919 4.81294 61.2601 8.36879 54.7924C7.92081 54.1135 7.50782 53.4205 7.11584 52.7065C3.81898 58.4393 0.669122 65.873 4.02898 69.2328C5.04393 70.2478 6.43687 70.6677 8.0398 70.6677C11.7356 70.6677 16.5584 68.4418 20.5553 66.1459C20.6323 66.1039 20.7092 66.0549 20.7862 66.0129C28.5629 61.4981 37.6135 54.2395 46.2861 45.5738C54.9518 36.9082 62.2105 27.8506 66.7183 20.0739C66.7603 20.0039 66.8023 19.9269 66.8443 19.8499C69.1472 15.8531 71.3731 11.0303 71.3731 7.33449C71.3731 5.73156 70.9531 4.33861 69.9381 3.32365Z" fill="#D4D4D4"/>
<path d="M70.6517 66.9191C70.6517 68.5599 69.3211 69.8905 67.6804 69.8905C66.0389 69.8905 64.709 68.5599 64.709 66.9191C64.709 65.2784 66.0389 63.9478 67.6804 63.9478C69.3211 63.9478 70.6517 65.2784 70.6517 66.9191Z" fill="#D4D4D4"/>
<path d="M55.6173 10.0012C53.6154 8.57324 51.4455 7.3763 49.1356 6.43834C45.3907 4.9054 41.2819 4.06543 36.9841 4.06543C19.1909 4.06543 4.77148 18.4848 4.77148 36.278C4.77148 40.5759 5.61844 44.6847 7.15138 48.4365C8.08234 50.7394 9.28629 52.9093 10.7002 54.9112C12.8001 57.8651 15.383 60.448 18.3369 62.5479C18.3369 62.5479 18.3369 62.5479 18.3439 62.5479C25.8966 58.2501 34.7232 51.2014 43.3188 42.6058C51.9075 34.0171 58.9491 25.1975 63.261 17.6379C61.161 14.684 58.5711 12.0941 55.6173 10.0012ZM22.4912 50.7793C18.7611 50.7793 15.7379 47.7554 15.7379 44.026C15.7379 40.2959 18.7611 37.2727 22.4912 37.2727C26.2207 37.2727 29.2445 40.2966 29.2445 44.026C29.2445 47.7561 26.2207 50.7793 22.4912 50.7793ZM34.0162 17.6952C32.1515 17.6952 30.6396 16.1833 30.6396 14.3186C30.6396 12.4539 32.1515 10.9419 34.0162 10.9419C35.8809 10.9419 37.3929 12.4539 37.3929 14.3186C37.3929 16.184 35.8809 17.6952 34.0162 17.6952Z" fill="#E9E9E9"/>
<path d="M5.47097 0C5.47097 3.02177 3.02177 5.47097 0 5.47097C3.02177 5.47097 5.47097 7.92016 5.47097 10.9419C5.47097 7.92016 7.92016 5.47097 10.9419 5.47097C7.92086 5.47097 5.47097 3.02177 5.47097 0Z" fill="#5E5E5E"/>
</svg>
