<?xml version="1.0" encoding="UTF-8"?>
<svg id="Layer_2" data-name="Layer 2" xmlns="http://www.w3.org/2000/svg" viewBox="0 0 171.98 198.03">
  <defs>
    <style>
      .cls-1 {
        fill: none;
      }

      .cls-1, .cls-2 {
        stroke: #fff;
        stroke-miterlimit: 10;
      }

      .cls-2 {
        fill: #8b79af;
      }
    </style>
  </defs>
  <g id="Layer_1-2" data-name="Layer 1">
    <g>
      <polygon class="cls-1" points="170.98 49.94 153.99 59.75 137 69.56 136.99 69.56 136.99 69.57 119.99 79.38 102.99 89.19 86 99.01 68.99 89.19 52 79.39 52 79.38 51.99 79.38 35 69.57 18 59.75 17.99 59.75 1 49.94 18 40.13 35 49.94 52 59.75 68.99 69.56 86 79.38 102.99 69.56 86 59.75 68.99 49.94 52 40.13 52 40.12 51.99 40.12 35 30.31 52 20.49 68.99 30.3 86 40.12 102.99 49.94 119.99 59.74 136.99 49.94 119.99 40.12 102.99 30.31 102.99 30.3 86 20.49 69 10.68 86 .87 86 .87 102.98 10.68 102.99 10.68 119.99 20.49 119.99 20.5 136.99 30.31 153.98 40.13 153.99 40.13 170.98 49.94"/>
      <polygon class="cls-1" points="136.99 49.94 119.99 59.74 102.99 49.94 86 40.12 68.99 30.3 68.99 10.68 69 10.68 86 20.49 102.99 30.3 102.99 30.31 119.99 40.12 136.99 49.94"/>
      <polygon class="cls-1" points="102.99 69.56 86 79.38 68.99 69.56 52 59.75 35 49.94 35 30.31 51.99 40.12 52 40.12 52 40.13 68.99 49.94 86 59.75 102.99 69.56"/>
      <polygon class="cls-2" points="170.98 49.96 170.98 69.59 153.99 79.4 153.98 79.4 136.99 89.22 119.99 99.03 119.99 99.03 119.99 99.03 102.99 108.84 102.99 167.72 119.99 157.91 119.99 157.91 136.99 148.1 153.98 138.29 153.99 138.29 153.99 138.28 170.98 128.47 170.98 128.47 170.98 148.1 153.99 157.91 136.99 167.73 119.99 177.54 119.99 177.55 119.99 177.55 102.99 187.36 86 197.16 86 99.03 102.98 89.22 102.99 89.22 102.99 89.21 119.99 79.4 119.99 79.4 136.99 69.59 136.99 69.58 153.99 59.77 153.99 59.77 170.98 49.96"/>
      <polygon class="cls-1" points="170.98 128.47 153.99 138.28 153.99 138.29 153.98 138.29 136.99 148.1 119.99 157.91 119.99 157.91 102.99 167.72 102.99 148.1 119.99 138.29 136.99 128.48 136.99 128.47 137 128.47 153.98 118.66 153.99 118.66 170.98 128.47"/>
      <polygon class="cls-1" points="86 99.03 86 197.16 68.99 187.36 68.99 108.84 52.01 99.03 52 99.03 52 177.54 35 167.73 35 167.73 35 89.21 18 79.4 18 157.91 1 148.1 1 128.48 1.01 128.47 1 128.47 1 49.96 18 59.77 35 69.58 35 69.59 52 79.4 68.99 89.21 68.99 89.22 69 89.22 86 99.03"/>
      <polygon class="cls-1" points="35 89.21 35 148.1 18 157.91 18 79.4 35 89.21"/>
      <polygon class="cls-1" points="68.99 108.84 68.99 167.73 52 177.54 52 99.03 52.01 99.03 68.99 108.84"/>
    </g>
  </g>
</svg>